# xmcd
#
# Track frame offsets:
#       150
#       13992
#       26065
#       36712
#       52035
#       65757
#       82515
#       98412
#       111650
#       126870
#       140615
#       158405
#       169075
#       182235
#
# Disc length: 2589 seconds
#
# Revision: 2
# Processed by: cddbd v1.5.2PL0 Copyright (c) Steve Scherf et al.
# Submitted via: FreeDbEdit v0.1
#
DISCID=c20a1b0e
DTITLE=Dolly Parton - Golden Favorites
DYEAR=1900
DGENRE=
TTITLE0=Coat of Many Colors
TTITLE1=Touch Your Woman
TTITLE2=Love Is Like a Butterfly
TTITLE3=Old Flames Can't Hold a Candle to You
TTITLE4=The Seeker
TTITLE5=Single Women
TTITLE6=Tennessee Homesick Blues
TTITLE7=Here You Come Again
TTITLE8=Think About Love
TTITLE9=It's All Wrong but It's All Right
TTITLE10=Starting Over Again
TTITLE11=All I Can Do
TTITLE12=I Will Always Love You
TTITLE13=9 to 5
EXTD=
EXTT0=
EXTT1=
EXTT2=
EXTT3=
EXTT4=
EXTT5=
EXTT6=
EXTT7=
EXTT8=
EXTT9=
EXTT10=
EXTT11=
EXTT12=
EXTT13=
PLAYORDER=
